<?xml version="1.0" standalone="no"?>
<!DOCTYPE svg PUBLIC "-//W3C//DTD SVG 20010904//EN"
 "http://www.w3.org/TR/2001/REC-SVG-20010904/DTD/svg10.dtd">
<svg version="1.0" xmlns="http://www.w3.org/2000/svg"
 width="348.000000pt" height="376.000000pt" viewBox="0 0 348.000000 376.000000"
 preserveAspectRatio="xMidYMid meet">
<metadata>
Created by potrace 1.16, written by Peter Selinger 2001-2019
</metadata>
<g transform="translate(0.000000,376.000000) scale(0.100000,-0.100000)"
fill="#000000" stroke="none">
<path d="M530 3554 c-102 -85 -198 -165 -214 -177 -17 -12 -44 -34 -60 -48
-33 -27 -37 -30 -131 -106 -86 -69 -88 -71 -83 -101 3 -15 26 -97 52 -182 102
-335 122 -404 156 -520 12 -41 37 -124 55 -185 19 -60 39 -130 45 -155 6 -25
22 -79 35 -120 21 -68 40 -132 105 -350 12 -41 34 -118 50 -170 15 -52 49
-167 75 -255 60 -203 84 -281 128 -430 43 -143 83 -278 84 -285 1 -3 4 -12 7
-20 10 -27 97 -324 102 -349 15 -71 37 -47 50 54 0 6 4 17 7 25 4 8 27 105 51
215 25 110 57 252 71 315 14 63 41 185 60 270 19 85 41 187 50 225 8 39 17 81
20 95 2 14 9 43 15 65 9 37 48 211 86 385 9 41 25 109 35 150 10 41 20 91 23
110 2 19 9 47 15 62 9 24 5 40 -30 115 -23 49 -70 153 -105 232 -102 228 -133
297 -184 409 -11 23 -20 45 -21 50 -1 4 -11 25 -22 47 -11 22 -22 45 -23 50
-1 6 -23 53 -49 105 -78 159 -97 239 -61 262 6 4 365 8 799 8 763 0 788 -1
806 -19 23 -23 20 -66 -9 -121 -10 -19 -57 -125 -106 -235 -122 -279 -170
-387 -256 -575 -16 -36 -36 -81 -45 -100 -8 -19 -32 -73 -53 -120 -21 -47 -35
-89 -32 -95 3 -5 7 -16 8 -25 1 -8 12 -49 23 -90 11 -41 22 -92 25 -112 2 -21
7 -41 10 -46 2 -4 16 -64 31 -132 14 -69 34 -163 44 -210 11 -47 31 -139 45
-205 15 -66 32 -142 37 -170 6 -27 15 -68 20 -90 5 -22 11 -51 13 -65 3 -14 7
-34 10 -45 8 -35 55 -249 59 -275 8 -38 65 -289 98 -427 16 -67 29 -129 29
-138 0 -50 25 14 94 242 120 395 188 626 190 643 1 9 5 20 8 25 3 6 24 75 47
155 24 80 60 201 81 270 21 69 65 215 99 325 34 110 72 238 85 285 31 108 151
511 170 570 14 42 74 247 82 280 2 8 19 66 39 129 19 62 33 117 30 121 -3 5
-1 11 5 15 28 18 15 31 -250 245 -99 81 -297 247 -358 302 l-54 48 -1016 -1
-1017 -1 -185 -154z"/>
</g>
</svg>
