<?xml version="1.0" standalone="no"?>
<!DOCTYPE svg PUBLIC "-//W3C//DTD SVG 20010904//EN"
 "http://www.w3.org/TR/2001/REC-SVG-20010904/DTD/svg10.dtd">
<svg version="1.0" xmlns="http://www.w3.org/2000/svg"
 width="1024.000000pt" height="1024.000000pt" viewBox="0 0 1024.000000 1024.000000"
 preserveAspectRatio="xMidYMid meet">
<metadata>
Created by potrace 1.16, written by Peter Selinger 2001-2019
</metadata>
<g transform="translate(0.000000,1024.000000) scale(0.100000,-0.100000)"
fill="#000000" stroke="none">
<path d="M0 5120 l0 -5120 5120 0 5120 0 0 5120 0 5120 -5120 0 -5120 0 0
-5120z m6238 1808 c42 -35 187 -159 322 -277 135 -118 246 -215 248 -217 2 -1
-24 -93 -56 -205 -33 -112 -95 -323 -137 -469 -71 -243 -150 -512 -426 -1440
-226 -760 -294 -979 -300 -972 -3 4 -16 52 -28 107 -13 55 -72 318 -132 585
-174 768 -299 1336 -299 1353 0 8 18 55 41 104 50 109 208 458 259 573 21 47
79 175 130 285 50 110 92 210 92 223 0 12 -8 32 -17 42 -18 20 -35 20 -811 20
l-793 0 -15 -22 c-9 -12 -16 -29 -16 -36 0 -8 54 -134 119 -281 174 -388 369
-820 390 -864 l19 -37 -59 -268 c-291 -1318 -392 -1769 -398 -1780 -8 -14 -71
192 -439 1428 -333 1115 -482 1624 -482 1644 0 14 153 144 435 371 88 70 177
143 198 162 l37 33 1021 0 1021 0 76 -62z"/>
</g>
</svg>
